<mxfile host="65bd71144e">
    <diagram id="THCFJ4oziT5p31fVEhTD" name="Page-1">
        <mxGraphModel dx="653" dy="1438" grid="1" gridSize="10" guides="1" tooltips="1" connect="1" arrows="1" fold="1" page="1" pageScale="1" pageWidth="850" pageHeight="1100" math="0" shadow="0">
            <root>
                <mxCell id="0"/>
                <mxCell id="1" parent="0"/>
                <mxCell id="3" value="Application Layer L.O.D. 1" style="text;html=1;strokeColor=none;fillColor=none;align=center;verticalAlign=middle;whiteSpace=wrap;rounded=0;" vertex="1" parent="1">
                    <mxGeometry x="20" width="120" height="30" as="geometry"/>
                </mxCell>
                <mxCell id="7" value="ROS &lt;br&gt;Interface" style="edgeStyle=none;html=1;exitX=0;exitY=0.5;exitDx=0;exitDy=0;entryX=1;entryY=0;entryDx=0;entryDy=0;" edge="1" parent="1" source="4" target="33">
                    <mxGeometry relative="1" as="geometry">
                        <mxPoint x="125" y="80" as="targetPoint"/>
                        <mxPoint as="offset"/>
                    </mxGeometry>
                </mxCell>
                <mxCell id="9" style="edgeStyle=none;html=1;exitX=1;exitY=0.5;exitDx=0;exitDy=0;entryX=0;entryY=0.5;entryDx=0;entryDy=0;" edge="1" parent="1" source="4" target="6">
                    <mxGeometry relative="1" as="geometry">
                        <Array as="points">
                            <mxPoint x="275" y="120"/>
                        </Array>
                    </mxGeometry>
                </mxCell>
                <mxCell id="4" value="Module 1&lt;br&gt;Node" style="ellipse;whiteSpace=wrap;html=1;aspect=fixed;" vertex="1" parent="1">
                    <mxGeometry x="195" y="40" width="80" height="80" as="geometry"/>
                </mxCell>
                <mxCell id="8" value="ROS&lt;br&gt;Interface" style="edgeStyle=none;html=1;exitX=0;exitY=0.5;exitDx=0;exitDy=0;entryX=1;entryY=1;entryDx=0;entryDy=0;" edge="1" parent="1" source="5" target="33">
                    <mxGeometry relative="1" as="geometry">
                        <mxPoint x="125" y="170" as="targetPoint"/>
                    </mxGeometry>
                </mxCell>
                <mxCell id="10" value="Send Packet" style="edgeStyle=none;html=1;exitX=1;exitY=0.5;exitDx=0;exitDy=0;" edge="1" parent="1" source="5">
                    <mxGeometry x="0.3846" relative="1" as="geometry">
                        <mxPoint x="355" y="120" as="targetPoint"/>
                        <Array as="points">
                            <mxPoint x="275" y="120"/>
                        </Array>
                        <mxPoint as="offset"/>
                    </mxGeometry>
                </mxCell>
                <mxCell id="5" value="Module 2 Node" style="ellipse;whiteSpace=wrap;html=1;aspect=fixed;" vertex="1" parent="1">
                    <mxGeometry x="195" y="130" width="80" height="80" as="geometry"/>
                </mxCell>
                <mxCell id="11" value="Response" style="edgeStyle=none;html=1;exitX=0;exitY=0;exitDx=0;exitDy=0;entryX=1;entryY=0.5;entryDx=0;entryDy=0;" edge="1" parent="1" source="6" target="4">
                    <mxGeometry relative="1" as="geometry">
                        <Array as="points">
                            <mxPoint x="345" y="80"/>
                        </Array>
                    </mxGeometry>
                </mxCell>
                <mxCell id="12" value="Response" style="edgeStyle=none;html=1;exitX=0;exitY=1;exitDx=0;exitDy=0;entryX=1;entryY=0.5;entryDx=0;entryDy=0;" edge="1" parent="1" source="6" target="5">
                    <mxGeometry relative="1" as="geometry">
                        <Array as="points">
                            <mxPoint x="345" y="170"/>
                        </Array>
                    </mxGeometry>
                </mxCell>
                <mxCell id="14" value="Request Packet" style="edgeStyle=none;html=1;exitX=1;exitY=0.5;exitDx=0;exitDy=0;entryX=0;entryY=0.5;entryDx=0;entryDy=0;" edge="1" parent="1" source="6" target="13">
                    <mxGeometry relative="1" as="geometry"/>
                </mxCell>
                <mxCell id="31" style="edgeStyle=none;html=1;exitX=1;exitY=0.5;exitDx=0;exitDy=0;entryX=0;entryY=0.5;entryDx=0;entryDy=0;" edge="1" parent="1" source="6" target="29">
                    <mxGeometry relative="1" as="geometry">
                        <Array as="points">
                            <mxPoint x="460" y="130"/>
                            <mxPoint x="605" y="130"/>
                            <mxPoint x="605" y="220"/>
                        </Array>
                    </mxGeometry>
                </mxCell>
                <mxCell id="6" value="Transport Agent" style="ellipse;whiteSpace=wrap;html=1;aspect=fixed;" vertex="1" parent="1">
                    <mxGeometry x="355" y="80" width="80" height="80" as="geometry"/>
                </mxCell>
                <mxCell id="15" value="Response Packet" style="edgeStyle=none;html=1;exitX=0;exitY=0.25;exitDx=0;exitDy=0;entryX=1;entryY=0;entryDx=0;entryDy=0;" edge="1" parent="1" source="13" target="6">
                    <mxGeometry relative="1" as="geometry">
                        <Array as="points">
                            <mxPoint x="445" y="105"/>
                        </Array>
                    </mxGeometry>
                </mxCell>
                <mxCell id="17" style="edgeStyle=none;html=1;exitX=1;exitY=0.5;exitDx=0;exitDy=0;entryX=0;entryY=0.5;entryDx=0;entryDy=0;" edge="1" parent="1" source="13" target="16">
                    <mxGeometry relative="1" as="geometry"/>
                </mxCell>
                <mxCell id="13" value="Module 1 Packet Handler" style="shape=process;whiteSpace=wrap;html=1;backgroundOutline=1;" vertex="1" parent="1">
                    <mxGeometry x="635" y="90" width="120" height="60" as="geometry"/>
                </mxCell>
                <mxCell id="16" value="Module Hardware" style="triangle;whiteSpace=wrap;html=1;" vertex="1" parent="1">
                    <mxGeometry x="805" y="80" width="90" height="80" as="geometry"/>
                </mxCell>
                <mxCell id="18" value="ROS Key:" style="text;html=1;strokeColor=none;fillColor=none;align=center;verticalAlign=middle;whiteSpace=wrap;rounded=0;" vertex="1" parent="1">
                    <mxGeometry x="20" y="-190" width="60" height="30" as="geometry"/>
                </mxCell>
                <mxCell id="19" value="ROS Node" style="ellipse;whiteSpace=wrap;html=1;aspect=fixed;" vertex="1" parent="1">
                    <mxGeometry x="10" y="-120" width="80" height="80" as="geometry"/>
                </mxCell>
                <mxCell id="21" value="Message" style="whiteSpace=wrap;html=1;aspect=fixed;" vertex="1" parent="1">
                    <mxGeometry x="100" y="-120" width="80" height="80" as="geometry"/>
                </mxCell>
                <mxCell id="22" value="Service" style="triangle;whiteSpace=wrap;html=1;" vertex="1" parent="1">
                    <mxGeometry x="200" y="-120" width="60" height="80" as="geometry"/>
                </mxCell>
                <mxCell id="23" value="Action" style="shape=hexagon;perimeter=hexagonPerimeter2;whiteSpace=wrap;html=1;fixedSize=1;" vertex="1" parent="1">
                    <mxGeometry x="280" y="-120" width="120" height="80" as="geometry"/>
                </mxCell>
                <mxCell id="24" value="Level of Detail" style="swimlane;fontStyle=0;childLayout=stackLayout;horizontal=1;startSize=30;horizontalStack=0;resizeParent=1;resizeParentMax=0;resizeLast=0;collapsible=1;marginBottom=0;whiteSpace=wrap;html=1;" vertex="1" parent="1">
                    <mxGeometry x="440" y="-150" width="140" height="120" as="geometry"/>
                </mxCell>
                <mxCell id="25" value="1, Highest Summary" style="text;strokeColor=none;fillColor=none;align=left;verticalAlign=middle;spacingLeft=4;spacingRight=4;overflow=hidden;points=[[0,0.5],[1,0.5]];portConstraint=eastwest;rotatable=0;whiteSpace=wrap;html=1;" vertex="1" parent="24">
                    <mxGeometry y="30" width="140" height="30" as="geometry"/>
                </mxCell>
                <mxCell id="26" value="2, Moderate Detail" style="text;strokeColor=none;fillColor=none;align=left;verticalAlign=middle;spacingLeft=4;spacingRight=4;overflow=hidden;points=[[0,0.5],[1,0.5]];portConstraint=eastwest;rotatable=0;whiteSpace=wrap;html=1;" vertex="1" parent="24">
                    <mxGeometry y="60" width="140" height="30" as="geometry"/>
                </mxCell>
                <mxCell id="27" value="3, Low/Minute Details" style="text;strokeColor=none;fillColor=none;align=left;verticalAlign=middle;spacingLeft=4;spacingRight=4;overflow=hidden;points=[[0,0.5],[1,0.5]];portConstraint=eastwest;rotatable=0;whiteSpace=wrap;html=1;" vertex="1" parent="24">
                    <mxGeometry y="90" width="140" height="30" as="geometry"/>
                </mxCell>
                <mxCell id="28" style="edgeStyle=none;html=1;exitX=1;exitY=0.5;exitDx=0;exitDy=0;entryX=0;entryY=0.5;entryDx=0;entryDy=0;" edge="1" parent="1" source="29" target="30">
                    <mxGeometry relative="1" as="geometry"/>
                </mxCell>
                <mxCell id="32" style="edgeStyle=none;html=1;exitX=0;exitY=0.25;exitDx=0;exitDy=0;entryX=1;entryY=0;entryDx=0;entryDy=0;" edge="1" parent="1" source="29" target="6">
                    <mxGeometry relative="1" as="geometry">
                        <Array as="points">
                            <mxPoint x="615" y="205"/>
                            <mxPoint x="615" y="110"/>
                            <mxPoint x="455" y="110"/>
                        </Array>
                    </mxGeometry>
                </mxCell>
                <mxCell id="29" value="Module 2 Packet Handler" style="shape=process;whiteSpace=wrap;html=1;backgroundOutline=1;" vertex="1" parent="1">
                    <mxGeometry x="635" y="190" width="120" height="60" as="geometry"/>
                </mxCell>
                <mxCell id="30" value="Module Hardware" style="triangle;whiteSpace=wrap;html=1;" vertex="1" parent="1">
                    <mxGeometry x="805" y="180" width="90" height="80" as="geometry"/>
                </mxCell>
                <mxCell id="33" value="Robot Control System" style="ellipse;whiteSpace=wrap;html=1;aspect=fixed;" vertex="1" parent="1">
                    <mxGeometry x="40" y="80" width="80" height="80" as="geometry"/>
                </mxCell>
                <mxCell id="34" style="edgeStyle=none;shape=link;html=1;exitX=0.5;exitY=1;exitDx=0;exitDy=0;entryX=0;entryY=0.5;entryDx=0;entryDy=0;" edge="1" parent="1" source="35" target="42">
                    <mxGeometry relative="1" as="geometry">
                        <Array as="points">
                            <mxPoint x="1500" y="160"/>
                        </Array>
                    </mxGeometry>
                </mxCell>
                <mxCell id="35" value="Network Router/&lt;br&gt;Switch" style="shape=process;whiteSpace=wrap;html=1;backgroundOutline=1;" vertex="1" parent="1">
                    <mxGeometry x="1440" y="50" width="120" height="60" as="geometry"/>
                </mxCell>
                <mxCell id="36" value="WiFI" style="edgeStyle=none;shape=link;html=1;exitX=1;exitY=0.5;exitDx=0;exitDy=0;entryX=0;entryY=0.5;entryDx=0;entryDy=0;" edge="1" parent="1" source="37" target="35">
                    <mxGeometry relative="1" as="geometry"/>
                </mxCell>
                <mxCell id="37" value="Competition&lt;br&gt;Logger/Delay" style="shape=parallelogram;perimeter=parallelogramPerimeter;whiteSpace=wrap;html=1;fixedSize=1;" vertex="1" parent="1">
                    <mxGeometry x="1220" y="50" width="120" height="60" as="geometry"/>
                </mxCell>
                <mxCell id="38" value="Eathernet" style="edgeStyle=none;shape=link;html=1;exitX=1;exitY=0.5;exitDx=0;exitDy=0;entryX=0;entryY=0.5;entryDx=0;entryDy=0;" edge="1" parent="1" source="39" target="37">
                    <mxGeometry relative="1" as="geometry"/>
                </mxCell>
                <mxCell id="39" value="Operator&lt;br&gt;Control" style="whiteSpace=wrap;html=1;aspect=fixed;" vertex="1" parent="1">
                    <mxGeometry x="1080" y="40" width="80" height="80" as="geometry"/>
                </mxCell>
                <mxCell id="40" value="Serial" style="edgeStyle=none;shape=link;html=1;exitX=0.5;exitY=0;exitDx=0;exitDy=0;entryX=0.5;entryY=1;entryDx=0;entryDy=0;" edge="1" parent="1" source="41" target="39">
                    <mxGeometry relative="1" as="geometry">
                        <Array as="points">
                            <mxPoint x="1120" y="160"/>
                        </Array>
                    </mxGeometry>
                </mxCell>
                <mxCell id="41" value="Wheel" style="triangle;whiteSpace=wrap;html=1;" vertex="1" parent="1">
                    <mxGeometry x="1080" y="160" width="60" height="80" as="geometry"/>
                </mxCell>
                <mxCell id="42" value="Jetson Nano/&lt;br&gt;SBC" style="whiteSpace=wrap;html=1;aspect=fixed;" vertex="1" parent="1">
                    <mxGeometry x="1580" y="120" width="80" height="80" as="geometry"/>
                </mxCell>
                <mxCell id="43" value="Eathernet" style="edgeStyle=none;shape=link;html=1;exitX=0;exitY=0.5;exitDx=0;exitDy=0;" edge="1" parent="1" source="46">
                    <mxGeometry x="0.2727" relative="1" as="geometry">
                        <mxPoint x="1500" y="160" as="targetPoint"/>
                        <Array as="points">
                            <mxPoint x="1500" y="280"/>
                        </Array>
                        <mxPoint as="offset"/>
                    </mxGeometry>
                </mxCell>
                <mxCell id="44" value="CAN" style="edgeStyle=none;html=1;exitX=1;exitY=0.5;exitDx=0;exitDy=0;entryX=0;entryY=0.5;entryDx=0;entryDy=0;" edge="1" parent="1" source="46" target="47">
                    <mxGeometry relative="1" as="geometry">
                        <Array as="points">
                            <mxPoint x="1740" y="280"/>
                            <mxPoint x="1740" y="240"/>
                        </Array>
                    </mxGeometry>
                </mxCell>
                <mxCell id="45" style="edgeStyle=none;html=1;exitX=1;exitY=0.5;exitDx=0;exitDy=0;entryX=0;entryY=0.5;entryDx=0;entryDy=0;" edge="1" parent="1" source="46" target="48">
                    <mxGeometry relative="1" as="geometry">
                        <Array as="points">
                            <mxPoint x="1740" y="280"/>
                            <mxPoint x="1740" y="320"/>
                        </Array>
                    </mxGeometry>
                </mxCell>
                <mxCell id="46" value="Eathernet&lt;br&gt;To CAN" style="shape=step;perimeter=stepPerimeter;whiteSpace=wrap;html=1;fixedSize=1;" vertex="1" parent="1">
                    <mxGeometry x="1580" y="240" width="120" height="80" as="geometry"/>
                </mxCell>
                <mxCell id="47" value="Spark Max" style="shape=parallelogram;perimeter=parallelogramPerimeter;whiteSpace=wrap;html=1;fixedSize=1;" vertex="1" parent="1">
                    <mxGeometry x="1780" y="210" width="120" height="60" as="geometry"/>
                </mxCell>
                <mxCell id="48" value="Or DunkenMotor" style="shape=parallelogram;perimeter=parallelogramPerimeter;whiteSpace=wrap;html=1;fixedSize=1;" vertex="1" parent="1">
                    <mxGeometry x="1770" y="290" width="120" height="60" as="geometry"/>
                </mxCell>
                <mxCell id="49" value="Power" style="edgeStyle=none;html=1;exitX=0.5;exitY=0;exitDx=0;exitDy=0;" edge="1" parent="1" source="52">
                    <mxGeometry relative="1" as="geometry">
                        <mxPoint x="1730" y="420" as="targetPoint"/>
                    </mxGeometry>
                </mxCell>
                <mxCell id="50" style="edgeStyle=none;shape=link;html=1;exitX=0.5;exitY=1;exitDx=0;exitDy=0;" edge="1" parent="1" source="52">
                    <mxGeometry relative="1" as="geometry">
                        <mxPoint x="1500" y="280" as="targetPoint"/>
                        <Array as="points">
                            <mxPoint x="1500" y="420"/>
                        </Array>
                    </mxGeometry>
                </mxCell>
                <mxCell id="51" value="Redundant Control Signal" style="edgeStyle=none;html=1;exitX=0.75;exitY=0;exitDx=0;exitDy=0;entryX=0;entryY=0.5;entryDx=0;entryDy=0;" edge="1" parent="1" source="52" target="56">
                    <mxGeometry x="-0.1579" relative="1" as="geometry">
                        <Array as="points">
                            <mxPoint x="1690" y="450"/>
                            <mxPoint x="1690" y="600"/>
                        </Array>
                        <mxPoint as="offset"/>
                    </mxGeometry>
                </mxCell>
                <mxCell id="52" value="GPIO&lt;br&gt;Breakout" style="shape=trapezoid;perimeter=trapezoidPerimeter;whiteSpace=wrap;html=1;fixedSize=1;direction=south;" vertex="1" parent="1">
                    <mxGeometry x="1580" y="360" width="60" height="120" as="geometry"/>
                </mxCell>
                <mxCell id="53" value="LEDs, Small Motors,&lt;br&gt;anything..." style="rounded=0;whiteSpace=wrap;html=1;" vertex="1" parent="1">
                    <mxGeometry x="1730" y="390" width="120" height="60" as="geometry"/>
                </mxCell>
                <mxCell id="54" value="Power" style="edgeStyle=none;html=1;exitX=0.5;exitY=0;exitDx=0;exitDy=0;" edge="1" parent="1" source="56">
                    <mxGeometry relative="1" as="geometry">
                        <mxPoint x="1730" y="650" as="targetPoint"/>
                    </mxGeometry>
                </mxCell>
                <mxCell id="55" style="edgeStyle=none;shape=link;html=1;exitX=0.5;exitY=1;exitDx=0;exitDy=0;" edge="1" parent="1" source="56">
                    <mxGeometry relative="1" as="geometry">
                        <mxPoint x="1500" y="420" as="targetPoint"/>
                        <Array as="points">
                            <mxPoint x="1500" y="650"/>
                        </Array>
                    </mxGeometry>
                </mxCell>
                <mxCell id="56" value="H Bridge" style="shape=trapezoid;perimeter=trapezoidPerimeter;whiteSpace=wrap;html=1;fixedSize=1;direction=south;" vertex="1" parent="1">
                    <mxGeometry x="1580" y="590" width="60" height="120" as="geometry"/>
                </mxCell>
                <mxCell id="57" value="LEDs, Small Motors,&lt;br&gt;anything..." style="rounded=0;whiteSpace=wrap;html=1;" vertex="1" parent="1">
                    <mxGeometry x="1730" y="620" width="120" height="60" as="geometry"/>
                </mxCell>
                <mxCell id="58" value="Data" style="edgeStyle=none;html=1;exitX=0;exitY=0;exitDx=0;exitDy=15;exitPerimeter=0;" edge="1" parent="1" source="59">
                    <mxGeometry x="-0.5122" y="5" relative="1" as="geometry">
                        <mxPoint x="1640" y="430" as="targetPoint"/>
                        <Array as="points">
                            <mxPoint x="1700" y="485"/>
                            <mxPoint x="1700" y="430"/>
                        </Array>
                        <mxPoint as="offset"/>
                    </mxGeometry>
                </mxCell>
                <mxCell id="59" value="LiDAR" style="shape=cylinder3;whiteSpace=wrap;html=1;boundedLbl=1;backgroundOutline=1;size=15;" vertex="1" parent="1">
                    <mxGeometry x="1790" y="470" width="60" height="80" as="geometry"/>
                </mxCell>
                <mxCell id="60" style="edgeStyle=none;shape=link;html=1;exitX=0;exitY=0.5;exitDx=0;exitDy=0;" edge="1" parent="1" source="61">
                    <mxGeometry relative="1" as="geometry">
                        <mxPoint x="1500" y="650" as="targetPoint"/>
                        <Array as="points">
                            <mxPoint x="1500" y="810"/>
                        </Array>
                    </mxGeometry>
                </mxCell>
                <mxCell id="61" value="Camera" style="shape=hexagon;perimeter=hexagonPerimeter2;whiteSpace=wrap;html=1;fixedSize=1;" vertex="1" parent="1">
                    <mxGeometry x="1580" y="770" width="120" height="80" as="geometry"/>
                </mxCell>
                <mxCell id="62" value="Note:&lt;br&gt;The Operator can access every device on the network even if the Jetson Nano Crashes. Manual override and control at the cost of extra data.&lt;br&gt;Router is a single point of failure though." style="shape=note;whiteSpace=wrap;html=1;backgroundOutline=1;darkOpacity=0.05;" vertex="1" parent="1">
                    <mxGeometry x="1080" y="260" width="150" height="190" as="geometry"/>
                </mxCell>
                <mxCell id="63" value="Eathernet robot intranet, 1 gigabit/s per device. Allows for dyanmic and easily scaleable robot using modules that join the network.&lt;br&gt;Reliable and interference resistant. Add a redundant SBC or other modules" style="shape=note;whiteSpace=wrap;html=1;backgroundOutline=1;darkOpacity=0.05;" vertex="1" parent="1">
                    <mxGeometry x="1330" y="260" width="150" height="190" as="geometry"/>
                </mxCell>
                <mxCell id="64" value="Eathernet/POE" style="edgeStyle=none;shape=link;html=1;exitX=1;exitY=0.5;exitDx=0;exitDy=0;exitPerimeter=0;" edge="1" parent="1">
                    <mxGeometry relative="1" as="geometry">
                        <mxPoint x="1500" y="810" as="targetPoint"/>
                        <mxPoint x="1350" y="850" as="sourcePoint"/>
                        <Array as="points">
                            <mxPoint x="1500" y="850"/>
                        </Array>
                    </mxGeometry>
                </mxCell>
                <mxCell id="65" value="Remote Sensor/ GPIO" style="shape=tape;whiteSpace=wrap;html=1;" vertex="1" parent="1">
                    <mxGeometry x="1220" y="800" width="135" height="100" as="geometry"/>
                </mxCell>
                <mxCell id="66" value="Remote sensor or GPIO?&lt;br&gt;Use POE over just one&lt;br&gt;cable" style="shape=note;whiteSpace=wrap;html=1;backgroundOutline=1;darkOpacity=0.05;" vertex="1" parent="1">
                    <mxGeometry x="1215" y="630" width="145" height="160" as="geometry"/>
                </mxCell>
                <mxCell id="67" value="Example Physical Setup, L.O.D. 1" style="text;html=1;strokeColor=none;fillColor=none;align=center;verticalAlign=middle;whiteSpace=wrap;rounded=0;" vertex="1" parent="1">
                    <mxGeometry x="1080" width="130" height="30" as="geometry"/>
                </mxCell>
                <mxCell id="68" value="Publish" style="edgeStyle=none;html=1;exitX=0;exitY=1;exitDx=0;exitDy=0;entryX=0.5;entryY=0;entryDx=0;entryDy=0;" edge="1" parent="1" source="72" target="76">
                    <mxGeometry relative="1" as="geometry">
                        <Array as="points">
                            <mxPoint x="375" y="1530"/>
                        </Array>
                    </mxGeometry>
                </mxCell>
                <mxCell id="69" value="Publish" style="edgeStyle=none;html=1;exitX=0.5;exitY=1;exitDx=0;exitDy=0;entryX=0.5;entryY=0;entryDx=0;entryDy=0;" edge="1" parent="1" source="72" target="78">
                    <mxGeometry relative="1" as="geometry">
                        <Array as="points">
                            <mxPoint x="505" y="1580"/>
                        </Array>
                    </mxGeometry>
                </mxCell>
                <mxCell id="70" value="Publish" style="edgeStyle=none;html=1;exitX=1;exitY=1;exitDx=0;exitDy=0;entryX=0.5;entryY=0;entryDx=0;entryDy=0;" edge="1" parent="1" source="72" target="80">
                    <mxGeometry relative="1" as="geometry">
                        <Array as="points">
                            <mxPoint x="635" y="1530"/>
                        </Array>
                    </mxGeometry>
                </mxCell>
                <mxCell id="71" value="srv" style="edgeStyle=none;html=1;exitX=1;exitY=0.5;exitDx=0;exitDy=0;entryX=0;entryY=0.5;entryDx=0;entryDy=0;" edge="1" parent="1" source="72" target="99">
                    <mxGeometry relative="1" as="geometry">
                        <Array as="points">
                            <mxPoint x="680" y="1420"/>
                            <mxPoint x="680" y="1380"/>
                        </Array>
                    </mxGeometry>
                </mxCell>
                <mxCell id="111" value="srv" style="edgeStyle=none;html=1;exitX=1;exitY=0.5;exitDx=0;exitDy=0;entryX=0;entryY=0.5;entryDx=0;entryDy=0;" edge="1" parent="1" source="72" target="110">
                    <mxGeometry relative="1" as="geometry">
                        <Array as="points">
                            <mxPoint x="660" y="1420"/>
                            <mxPoint x="660" y="1260"/>
                        </Array>
                    </mxGeometry>
                </mxCell>
                <mxCell id="72" value="ROI Module Virtualization (Node)&lt;br&gt;Exmaple: generalGPIO on host octet 15&lt;br&gt;with alias/namespace front/gpio" style="ellipse;whiteSpace=wrap;html=1;aspect=fixed;" vertex="1" parent="1">
                    <mxGeometry x="385" y="1300" width="240" height="240" as="geometry"/>
                </mxCell>
                <mxCell id="73" value="Subscribe" style="edgeStyle=none;html=1;exitX=0;exitY=0.5;exitDx=0;exitDy=0;entryX=1;entryY=0.5;entryDx=0;entryDy=0;" edge="1" parent="1" source="74" target="72">
                    <mxGeometry relative="1" as="geometry">
                        <Array as="points">
                            <mxPoint x="680" y="1490"/>
                            <mxPoint x="680" y="1420"/>
                        </Array>
                    </mxGeometry>
                </mxCell>
                <mxCell id="74" value="Octet Response&lt;br&gt;Name: octet15_response" style="rounded=0;whiteSpace=wrap;html=1;" vertex="1" parent="1">
                    <mxGeometry x="710" y="1460" width="170" height="60" as="geometry"/>
                </mxCell>
                <mxCell id="75" style="edgeStyle=none;html=1;exitX=0.5;exitY=1;exitDx=0;exitDy=0;entryX=0.5;entryY=0;entryDx=0;entryDy=0;" edge="1" parent="1" source="76" target="94">
                    <mxGeometry relative="1" as="geometry">
                        <Array as="points">
                            <mxPoint x="375" y="2020"/>
                            <mxPoint x="495" y="2020"/>
                        </Array>
                    </mxGeometry>
                </mxCell>
                <mxCell id="76" value="GPIO pin modes&lt;br&gt;Name: front/gpio/modes" style="rounded=0;whiteSpace=wrap;html=1;" vertex="1" parent="1">
                    <mxGeometry x="315" y="1660" width="120" height="60" as="geometry"/>
                </mxCell>
                <mxCell id="77" style="edgeStyle=none;html=1;exitX=0.5;exitY=1;exitDx=0;exitDy=0;entryX=0.5;entryY=0;entryDx=0;entryDy=0;" edge="1" parent="1" source="78" target="94">
                    <mxGeometry relative="1" as="geometry"/>
                </mxCell>
                <mxCell id="78" value="GPIO pin states&lt;br&gt;Name: front/gpio/states" style="rounded=0;whiteSpace=wrap;html=1;" vertex="1" parent="1">
                    <mxGeometry x="445" y="1660" width="120" height="60" as="geometry"/>
                </mxCell>
                <mxCell id="79" style="edgeStyle=none;html=1;exitX=0.5;exitY=1;exitDx=0;exitDy=0;entryX=0.5;entryY=0;entryDx=0;entryDy=0;" edge="1" parent="1" source="80" target="94">
                    <mxGeometry relative="1" as="geometry">
                        <Array as="points">
                            <mxPoint x="635" y="2020"/>
                            <mxPoint x="515" y="2020"/>
                        </Array>
                    </mxGeometry>
                </mxCell>
                <mxCell id="80" value="Module Health&lt;br&gt;Name:&lt;br&gt;front/gpio/health" style="rounded=0;whiteSpace=wrap;html=1;" vertex="1" parent="1">
                    <mxGeometry x="575" y="1660" width="120" height="60" as="geometry"/>
                </mxCell>
                <mxCell id="81" value="Multi-Threaded &lt;br&gt;Background READ Polling" style="edgeStyle=none;html=1;exitX=1;exitY=0;exitDx=0;exitDy=0;entryX=0;entryY=0;entryDx=0;entryDy=0;" edge="1" parent="1" source="72" target="72">
                    <mxGeometry relative="1" as="geometry">
                        <Array as="points">
                            <mxPoint x="590" y="1250"/>
                            <mxPoint x="420" y="1250"/>
                        </Array>
                    </mxGeometry>
                </mxCell>
                <mxCell id="82" style="edgeStyle=none;html=1;exitX=0.5;exitY=0;exitDx=0;exitDy=0;entryX=0;entryY=1;entryDx=0;entryDy=0;" edge="1" parent="1" source="83" target="72">
                    <mxGeometry relative="1" as="geometry">
                        <Array as="points">
                            <mxPoint x="230" y="1510"/>
                            <mxPoint x="405" y="1510"/>
                        </Array>
                    </mxGeometry>
                </mxCell>
                <mxCell id="83" value="Set Pin Mode&lt;br&gt;front/gpio/setMode" style="rhombus;whiteSpace=wrap;html=1;" vertex="1" parent="1">
                    <mxGeometry x="155" y="1630" width="150" height="120" as="geometry"/>
                </mxCell>
                <mxCell id="84" value="Service" style="edgeStyle=none;html=1;exitX=0.5;exitY=0;exitDx=0;exitDy=0;entryX=0;entryY=1;entryDx=0;entryDy=0;" edge="1" parent="1" source="85" target="72">
                    <mxGeometry relative="1" as="geometry">
                        <Array as="points">
                            <mxPoint x="80" y="1510"/>
                            <mxPoint x="405" y="1510"/>
                        </Array>
                    </mxGeometry>
                </mxCell>
                <mxCell id="85" value="Set Pin Output&lt;br&gt;front/gpio/setState" style="rhombus;whiteSpace=wrap;html=1;" vertex="1" parent="1">
                    <mxGeometry x="5" y="1630" width="150" height="120" as="geometry"/>
                </mxCell>
                <mxCell id="86" value="Every ~50ms send out read input packets. We need to publish these values in a topic, there must be some refreshing of the topic. Like cache invalidation." style="shape=note;whiteSpace=wrap;html=1;backgroundOutline=1;darkOpacity=0.05;" vertex="1" parent="1">
                    <mxGeometry x="415" y="1100" width="180" height="130" as="geometry"/>
                </mxCell>
                <mxCell id="87" value="&amp;nbsp;pinNumber,&lt;br&gt;&amp;nbsp;State: In, In_pullup,&lt;br&gt;Out" style="shape=note;whiteSpace=wrap;html=1;backgroundOutline=1;darkOpacity=0.05;" vertex="1" parent="1">
                    <mxGeometry x="190" y="1750" width="80" height="100" as="geometry"/>
                </mxCell>
                <mxCell id="88" value="pinNumber,&lt;br&gt;&amp;nbsp;outputState" style="shape=note;whiteSpace=wrap;html=1;backgroundOutline=1;darkOpacity=0.05;" vertex="1" parent="1">
                    <mxGeometry x="40" y="1750" width="80" height="100" as="geometry"/>
                </mxCell>
                <mxCell id="89" value="&amp;nbsp;pin0: In, In_pullup, Out&lt;br&gt;pin2: In, In_pullup,&amp;nbsp;Out&lt;br&gt;&amp;nbsp;pin3: In, In_pullup,&amp;nbsp;Out&lt;br&gt;&amp;nbsp;pin4: In, In_pullup,&amp;nbsp;Out&lt;br&gt;&amp;nbsp;pin5: In, In_pullup,&amp;nbsp;Out&lt;br&gt;...&lt;br&gt;&amp;nbsp;pin17: In, In_pullup,&amp;nbsp;Out" style="shape=note;whiteSpace=wrap;html=1;backgroundOutline=1;darkOpacity=0.05;" vertex="1" parent="1">
                    <mxGeometry x="315" y="1730" width="120" height="270" as="geometry"/>
                </mxCell>
                <mxCell id="90" value="&amp;nbsp;pin0,&lt;br&gt;&amp;nbsp;pin1&lt;br&gt;..&lt;br&gt;&amp;nbsp;pin7,&lt;br&gt;&amp;nbsp;pin10,&lt;br&gt;...&lt;br&gt;&amp;nbsp;pin 17&lt;br&gt;&lt;br&gt;pins 0-7 are digital in&lt;br&gt;pins 10-17 are analog ins" style="shape=note;whiteSpace=wrap;html=1;backgroundOutline=1;darkOpacity=0.05;" vertex="1" parent="1">
                    <mxGeometry x="445" y="1730" width="120" height="270" as="geometry"/>
                </mxCell>
                <mxCell id="91" value="bool operating,&lt;br&gt;str status message (error message if not operable)" style="shape=note;whiteSpace=wrap;html=1;backgroundOutline=1;darkOpacity=0.05;" vertex="1" parent="1">
                    <mxGeometry x="575" y="1730" width="120" height="270" as="geometry"/>
                </mxCell>
                <mxCell id="92" style="edgeStyle=none;html=1;exitX=0;exitY=0;exitDx=0;exitDy=0;entryX=0.5;entryY=1;entryDx=0;entryDy=0;entryPerimeter=0;" edge="1" parent="1" source="94" target="87">
                    <mxGeometry relative="1" as="geometry">
                        <Array as="points">
                            <mxPoint x="230" y="2075"/>
                        </Array>
                    </mxGeometry>
                </mxCell>
                <mxCell id="93" style="edgeStyle=none;html=1;exitX=0;exitY=0;exitDx=0;exitDy=0;entryX=0.5;entryY=1;entryDx=0;entryDy=0;entryPerimeter=0;" edge="1" parent="1" source="94" target="88">
                    <mxGeometry relative="1" as="geometry">
                        <Array as="points">
                            <mxPoint x="80" y="2075"/>
                        </Array>
                    </mxGeometry>
                </mxCell>
                <mxCell id="94" value="Robot Control System" style="ellipse;whiteSpace=wrap;html=1;aspect=fixed;" vertex="1" parent="1">
                    <mxGeometry x="385" y="2040" width="240" height="240" as="geometry"/>
                </mxCell>
                <mxCell id="95" value="Publish" style="edgeStyle=none;html=1;exitX=0;exitY=0.5;exitDx=0;exitDy=0;entryX=1;entryY=0.5;entryDx=0;entryDy=0;" edge="1" parent="1" source="97" target="74">
                    <mxGeometry relative="1" as="geometry">
                        <Array as="points">
                            <mxPoint x="900" y="1420"/>
                            <mxPoint x="900" y="1490"/>
                        </Array>
                    </mxGeometry>
                </mxCell>
                <mxCell id="96" style="edgeStyle=none;html=1;exitX=1;exitY=0.5;exitDx=0;exitDy=0;entryX=0;entryY=0.5;entryDx=0;entryDy=0;" edge="1" parent="1" source="97" target="100">
                    <mxGeometry relative="1" as="geometry">
                        <Array as="points">
                            <mxPoint x="1230" y="1420"/>
                            <mxPoint x="1230" y="1380"/>
                        </Array>
                    </mxGeometry>
                </mxCell>
                <mxCell id="114" value="Publish" style="edgeStyle=none;html=1;exitX=0;exitY=0.5;exitDx=0;exitDy=0;entryX=1;entryY=0.5;entryDx=0;entryDy=0;" edge="1" parent="1" source="97" target="113">
                    <mxGeometry relative="1" as="geometry">
                        <Array as="points">
                            <mxPoint x="920" y="1420"/>
                            <mxPoint x="920" y="1560"/>
                        </Array>
                    </mxGeometry>
                </mxCell>
                <mxCell id="97" value="Transport Agent Node&lt;br&gt;(ROS to UDP Interface)" style="ellipse;whiteSpace=wrap;html=1;aspect=fixed;" vertex="1" parent="1">
                    <mxGeometry x="940" y="1300" width="240" height="240" as="geometry"/>
                </mxCell>
                <mxCell id="98" value="srv" style="edgeStyle=none;html=1;exitX=1;exitY=0.5;exitDx=0;exitDy=0;entryX=0;entryY=0.5;entryDx=0;entryDy=0;" edge="1" parent="1" source="99" target="97">
                    <mxGeometry relative="1" as="geometry">
                        <Array as="points">
                            <mxPoint x="900" y="1380"/>
                            <mxPoint x="900" y="1420"/>
                        </Array>
                    </mxGeometry>
                </mxCell>
                <mxCell id="99" value="Queue Packet&lt;br&gt;Service" style="rhombus;whiteSpace=wrap;html=1;" vertex="1" parent="1">
                    <mxGeometry x="720" y="1320" width="150" height="120" as="geometry"/>
                </mxCell>
                <mxCell id="100" value="OS UDP" style="triangle;whiteSpace=wrap;html=1;" vertex="1" parent="1">
                    <mxGeometry x="1280" y="1340" width="60" height="80" as="geometry"/>
                </mxCell>
                <mxCell id="101" value="Network Socket" style="edgeStyle=none;html=1;exitX=0;exitY=0.5;exitDx=0;exitDy=0;entryX=1;entryY=0.5;entryDx=0;entryDy=0;" edge="1" parent="1" source="102" target="97">
                    <mxGeometry relative="1" as="geometry">
                        <Array as="points">
                            <mxPoint x="1230" y="1460"/>
                            <mxPoint x="1230" y="1420"/>
                        </Array>
                    </mxGeometry>
                </mxCell>
                <mxCell id="102" value="OS UDP" style="triangle;whiteSpace=wrap;html=1;" vertex="1" parent="1">
                    <mxGeometry x="1280" y="1420" width="60" height="80" as="geometry"/>
                </mxCell>
                <mxCell id="103" value="" style="swimlane;startSize=0;fontStyle=0" vertex="1" parent="1">
                    <mxGeometry y="1100" width="1370" height="1180" as="geometry"/>
                </mxCell>
                <mxCell id="104" value="&lt;font style=&quot;font-size: 24px;&quot;&gt;Jetson/SBC&lt;/font&gt;" style="text;html=1;strokeColor=none;fillColor=none;align=center;verticalAlign=middle;whiteSpace=wrap;rounded=0;" vertex="1" parent="103">
                    <mxGeometry x="10" y="10" width="160" height="70" as="geometry"/>
                </mxCell>
                <mxCell id="105" value="&lt;br&gt;&lt;font size=&quot;3&quot;&gt;&lt;br&gt;&lt;/font&gt;" style="shape=link;html=1;fontSize=24;entryX=0;entryY=0.5;entryDx=0;entryDy=0;entryPerimeter=0;" edge="1" parent="103" target="106">
                    <mxGeometry width="100" relative="1" as="geometry">
                        <mxPoint x="1340" y="280" as="sourcePoint"/>
                        <mxPoint x="1440" y="280" as="targetPoint"/>
                        <Array as="points">
                            <mxPoint x="1390" y="280"/>
                            <mxPoint x="1390" y="320"/>
                        </Array>
                    </mxGeometry>
                </mxCell>
                <mxCell id="110" value="Queue sysAdmin&lt;br&gt;&amp;nbsp;PacketService" style="rhombus;whiteSpace=wrap;html=1;" vertex="1" parent="103">
                    <mxGeometry x="720" y="100" width="150" height="120" as="geometry"/>
                </mxCell>
                <mxCell id="113" value="Octet Response&lt;br&gt;Name: sysAdmin_octet15_response" style="rounded=0;whiteSpace=wrap;html=1;" vertex="1" parent="103">
                    <mxGeometry x="710" y="430" width="170" height="60" as="geometry"/>
                </mxCell>
                <mxCell id="106" value="&lt;font style=&quot;font-size: 12px;&quot;&gt;Network Switch&lt;/font&gt;" style="shape=cylinder3;whiteSpace=wrap;html=1;boundedLbl=1;backgroundOutline=1;size=15;fontSize=24;" vertex="1" parent="1">
                    <mxGeometry x="1440" y="1380" width="60" height="80" as="geometry"/>
                </mxCell>
                <mxCell id="107" value="" style="shape=link;html=1;fontSize=24;entryX=0;entryY=0.5;entryDx=0;entryDy=0;entryPerimeter=0;exitX=1;exitY=0.5;exitDx=0;exitDy=0;" edge="1" parent="1" source="102" target="106">
                    <mxGeometry width="100" relative="1" as="geometry">
                        <mxPoint x="1350" y="1390" as="sourcePoint"/>
                        <mxPoint x="1450" y="1430" as="targetPoint"/>
                        <Array as="points">
                            <mxPoint x="1390" y="1460"/>
                            <mxPoint x="1390" y="1420"/>
                        </Array>
                    </mxGeometry>
                </mxCell>
                <mxCell id="109" value="" style="edgeStyle=none;html=1;" edge="1" parent="1" source="108" target="104">
                    <mxGeometry relative="1" as="geometry"/>
                </mxCell>
                <mxCell id="108" value="Application Stack, L.O.D. 3" style="text;html=1;strokeColor=none;fillColor=none;align=center;verticalAlign=middle;whiteSpace=wrap;rounded=0;" vertex="1" parent="1">
                    <mxGeometry x="20" y="1060" width="110" height="30" as="geometry"/>
                </mxCell>
                <mxCell id="112" value="srv" style="edgeStyle=none;html=1;exitX=1;exitY=0.5;exitDx=0;exitDy=0;entryX=0;entryY=0.5;entryDx=0;entryDy=0;" edge="1" parent="1" source="110" target="97">
                    <mxGeometry relative="1" as="geometry">
                        <Array as="points">
                            <mxPoint x="920" y="1260"/>
                            <mxPoint x="920" y="1420"/>
                        </Array>
                    </mxGeometry>
                </mxCell>
                <mxCell id="115" value="Subscribe" style="edgeStyle=none;html=1;exitX=0;exitY=0.5;exitDx=0;exitDy=0;entryX=1;entryY=0.5;entryDx=0;entryDy=0;" edge="1" parent="1" source="113" target="72">
                    <mxGeometry relative="1" as="geometry">
                        <Array as="points">
                            <mxPoint x="660" y="1560"/>
                            <mxPoint x="660" y="1420"/>
                        </Array>
                    </mxGeometry>
                </mxCell>
                <mxCell id="116" value="" style="swimlane;startSize=0;fontStyle=0" vertex="1" parent="1">
                    <mxGeometry x="1600" y="1100" width="1370" height="1180" as="geometry"/>
                </mxCell>
                <mxCell id="117" value="&lt;font style=&quot;font-size: 24px;&quot;&gt;Module&lt;/font&gt;" style="text;html=1;strokeColor=none;fillColor=none;align=center;verticalAlign=middle;whiteSpace=wrap;rounded=0;" vertex="1" parent="116">
                    <mxGeometry x="10" y="10" width="160" height="70" as="geometry"/>
                </mxCell>
                <mxCell id="130" value="W5500&amp;nbsp;&lt;br&gt;Ethernet to SPI" style="shape=process;whiteSpace=wrap;html=1;backgroundOutline=1;" vertex="1" parent="116">
                    <mxGeometry x="-10" y="290" width="120" height="60" as="geometry"/>
                </mxCell>
                <mxCell id="121" value="ORIGIN OCTET&lt;br&gt;0000_0000" style="shape=document;whiteSpace=wrap;html=1;boundedLbl=1;fillColor=#D519ED;" vertex="1" parent="1">
                    <mxGeometry x="1410" y="1641" width="120" height="80" as="geometry"/>
                </mxCell>
                <mxCell id="122" value="ACTION&lt;br&gt;(0000_0000&lt;br&gt;0000_0000)" style="shape=trapezoid;perimeter=trapezoidPerimeter;whiteSpace=wrap;html=1;fixedSize=1;fillColor=#D519ED;" vertex="1" parent="1">
                    <mxGeometry x="1410" y="1741" width="120" height="60" as="geometry"/>
                </mxCell>
                <mxCell id="123" value="ACTION VALUE/DATA&lt;br&gt;&lt;br&gt;(0000_0000&lt;br&gt;.&lt;br&gt;.&lt;br&gt;.&lt;br&gt;+++)" style="rounded=0;whiteSpace=wrap;html=1;fillColor=#D519ED;" vertex="1" parent="1">
                    <mxGeometry x="1410" y="1821" width="120" height="160" as="geometry"/>
                </mxCell>
                <mxCell id="124" value="CHAIN METADATA&lt;br&gt;0 - Not Chained&lt;br&gt;255 - Chained Message" style="shape=card;whiteSpace=wrap;html=1;fillColor=#D519ED;" vertex="1" parent="1">
                    <mxGeometry x="1410" y="1520" width="119" height="102" as="geometry"/>
                </mxCell>
                <mxCell id="125" value="ID&lt;br&gt;(0000_0000&lt;br&gt;0000_0000)" style="shape=document;whiteSpace=wrap;html=1;boundedLbl=1;fillColor=#D519ED;" vertex="1" parent="1">
                    <mxGeometry x="1409" y="2050" width="120" height="80" as="geometry"/>
                </mxCell>
                <mxCell id="126" value="ACTION&lt;br&gt;(0000_0000&lt;br&gt;0000_0000)" style="shape=trapezoid;perimeter=trapezoidPerimeter;whiteSpace=wrap;html=1;fixedSize=1;fillColor=#D519ED;" vertex="1" parent="1">
                    <mxGeometry x="1409" y="2150" width="120" height="60" as="geometry"/>
                </mxCell>
                <mxCell id="127" value="ACTION VALUE/DATA&lt;br&gt;&lt;br&gt;(0000_0000&lt;br&gt;.&lt;br&gt;.&lt;br&gt;.&lt;br&gt;+++)" style="rounded=0;whiteSpace=wrap;html=1;fillColor=#D519ED;" vertex="1" parent="1">
                    <mxGeometry x="1409" y="2230" width="120" height="160" as="geometry"/>
                </mxCell>
                <mxCell id="128" value="SysAdmin Packet Structure" style="text;html=1;strokeColor=none;fillColor=none;align=center;verticalAlign=middle;whiteSpace=wrap;rounded=0;" vertex="1" parent="1">
                    <mxGeometry x="1410" y="1490" width="120" height="30" as="geometry"/>
                </mxCell>
                <mxCell id="129" value="General Packet Structure" style="text;html=1;strokeColor=none;fillColor=none;align=center;verticalAlign=middle;whiteSpace=wrap;rounded=0;" vertex="1" parent="1">
                    <mxGeometry x="1410" y="2020" width="120" height="30" as="geometry"/>
                </mxCell>
                <mxCell id="131" value="" style="shape=link;html=1;fontSize=24;entryX=1;entryY=0.5;entryDx=0;entryDy=0;entryPerimeter=0;exitX=0;exitY=0.5;exitDx=0;exitDy=0;" edge="1" parent="1" source="130" target="106">
                    <mxGeometry width="100" relative="1" as="geometry">
                        <mxPoint x="1350" y="1470" as="sourcePoint"/>
                        <mxPoint x="1450" y="1430" as="targetPoint"/>
                        <Array as="points">
                            <mxPoint x="1530" y="1420"/>
                        </Array>
                    </mxGeometry>
                </mxCell>
            </root>
        </mxGraphModel>
    </diagram>
</mxfile>